<svg width="24" height="24" viewBox="0 0 24 24" fill="none" xmlns="http://www.w3.org/2000/svg">
<path d="M16.6667 20C16.0185 20 15.4676 19.7667 15.0139 19.3C14.5602 18.8333 14.3333 18.2667 14.3333 17.6C14.3333 17.5067 14.3398 17.4099 14.3528 17.3096C14.3657 17.2093 14.3852 17.1195 14.4111 17.04L8.92778 13.76C8.70741 13.96 8.46111 14.1168 8.18889 14.2304C7.91667 14.344 7.63148 14.4005 7.33333 14.4C6.68519 14.4 6.13426 14.1667 5.68056 13.7C5.22685 13.2333 5 12.6667 5 12C5 11.3333 5.22685 10.7667 5.68056 10.3C6.13426 9.83333 6.68519 9.6 7.33333 9.6C7.63148 9.6 7.91667 9.6568 8.18889 9.7704C8.46111 9.884 8.70741 10.0405 8.92778 10.24L14.4111 6.96C14.3852 6.88 14.3657 6.79013 14.3528 6.6904C14.3398 6.59067 14.3333 6.49387 14.3333 6.4C14.3333 5.73333 14.5602 5.16667 15.0139 4.7C15.4676 4.23333 16.0185 4 16.6667 4C17.3148 4 17.8657 4.23333 18.3194 4.7C18.7731 5.16667 19 5.73333 19 6.4C19 7.06667 18.7731 7.63333 18.3194 8.1C17.8657 8.56667 17.3148 8.8 16.6667 8.8C16.3685 8.8 16.0833 8.74347 15.8111 8.6304C15.5389 8.51733 15.2926 8.36053 15.0722 8.16L9.58889 11.44C9.61481 11.52 9.63426 11.6101 9.64722 11.7104C9.66019 11.8107 9.66667 11.9072 9.66667 12C9.66667 12.0933 9.66019 12.1901 9.64722 12.2904C9.63426 12.3907 9.61481 12.4805 9.58889 12.56L15.0722 15.84C15.2926 15.64 15.5389 15.4835 15.8111 15.3704C16.0833 15.2573 16.3685 15.2005 16.6667 15.2C17.3148 15.2 17.8657 15.4333 18.3194 15.9C18.7731 16.3667 19 16.9333 19 17.6C19 18.2667 18.7731 18.8333 18.3194 19.3C17.8657 19.7667 17.3148 20 16.6667 20ZM16.6667 7.2C16.887 7.2 17.0719 7.12347 17.2212 6.9704C17.3706 6.81733 17.445 6.6272 17.4444 6.4C17.4444 6.17333 17.3698 5.98347 17.2204 5.8304C17.0711 5.67733 16.8865 5.60053 16.6667 5.6C16.4463 5.6 16.2617 5.6768 16.1129 5.8304C15.9641 5.984 15.8894 6.17387 15.8889 6.4C15.8889 6.62667 15.9636 6.8168 16.1129 6.9704C16.2622 7.124 16.4468 7.20053 16.6667 7.2ZM7.33333 12.8C7.5537 12.8 7.73856 12.7232 7.88789 12.5696C8.03722 12.416 8.11163 12.2261 8.11111 12C8.11111 11.7733 8.03644 11.5835 7.88711 11.4304C7.73778 11.2773 7.55319 11.2005 7.33333 11.2C7.11296 11.2 6.92837 11.2768 6.77956 11.4304C6.63074 11.584 6.55607 11.7739 6.55556 12C6.55556 12.2267 6.63022 12.4168 6.77956 12.5704C6.92889 12.724 7.11348 12.8005 7.33333 12.8ZM16.6667 18.4C16.887 18.4 17.0719 18.3232 17.2212 18.1696C17.3706 18.016 17.445 17.8261 17.4444 17.6C17.4444 17.3733 17.3698 17.1835 17.2204 17.0304C17.0711 16.8773 16.8865 16.8005 16.6667 16.8C16.4463 16.8 16.2617 16.8768 16.1129 17.0304C15.9641 17.184 15.8894 17.3739 15.8889 17.6C15.8889 17.8267 15.9636 18.0168 16.1129 18.1704C16.2622 18.324 16.4468 18.4005 16.6667 18.4Z" fill="#717171"/>
</svg>
