<svg width="48" height="48" viewBox="0 0 48 48" fill="none" xmlns="http://www.w3.org/2000/svg">
<path d="M34 40V14H38.77C39.69 14 40.458 14.3087 41.074 14.926C41.6913 15.542 42 16.31 42 17.23V36.77C42 37.69 41.692 38.458 41.076 39.074C40.4587 39.6913 39.69 40 38.77 40H34ZM20 14H28V11.23C28 10.9233 27.872 10.6413 27.616 10.384C27.3587 10.128 27.0767 10 26.77 10H21.23C20.9233 10 20.6413 10.128 20.384 10.384C20.128 10.6413 20 10.9233 20 11.23V14ZM16 40V14H18V11.23C18 10.31 18.3087 9.542 18.926 8.926C19.542 8.30867 20.31 8 21.23 8H26.77C27.69 8 28.4587 8.30867 29.076 8.926C29.692 9.542 30 10.31 30 11.23V14H32V40H16ZM9.23 40C8.31 40 7.542 39.692 6.926 39.076C6.30867 38.4587 6 37.69 6 36.77V17.23C6 16.31 6.30867 15.542 6.926 14.926C7.542 14.3087 8.31 14 9.23 14H14V40H9.23Z" fill="white"/>
</svg>
