<svg width="16" height="16" viewBox="0 0 16 16" fill="none" xmlns="http://www.w3.org/2000/svg">
<path fill-rule="evenodd" clip-rule="evenodd" d="M4 1.75C4 1.55109 4.07902 1.36032 4.21967 1.21967C4.36032 1.07902 4.55109 1 4.75 1C4.94891 1 5.13968 1.07902 5.28033 1.21967C5.42098 1.36032 5.5 1.55109 5.5 1.75V3H10.5V1.75C10.5 1.55109 10.579 1.36032 10.7197 1.21967C10.8603 1.07902 11.0511 1 11.25 1C11.4489 1 11.6397 1.07902 11.7803 1.21967C11.921 1.36032 12 1.55109 12 1.75V3C12.5304 3 13.0391 3.21071 13.4142 3.58579C13.7893 3.96086 14 4.46957 14 5V12C14 12.5304 13.7893 13.0391 13.4142 13.4142C13.0391 13.7893 12.5304 14 12 14H4C3.46957 14 2.96086 13.7893 2.58579 13.4142C2.21071 13.0391 2 12.5304 2 12V5C2 4.46957 2.21071 3.96086 2.58579 3.58579C2.96086 3.21071 3.46957 3 4 3V1.75ZM4.5 6C4.23478 6 3.98043 6.10536 3.79289 6.29289C3.60536 6.48043 3.5 6.73478 3.5 7V11.5C3.5 11.7652 3.60536 12.0196 3.79289 12.2071C3.98043 12.3946 4.23478 12.5 4.5 12.5H11.5C11.7652 12.5 12.0196 12.3946 12.2071 12.2071C12.3946 12.0196 12.5 11.7652 12.5 11.5V7C12.5 6.73478 12.3946 6.48043 12.2071 6.29289C12.0196 6.10536 11.7652 6 11.5 6H4.5Z" fill="#8F8F8F"/>
</svg>
