<svg width="16" height="16" viewBox="0 0 16 16" fill="none" xmlns="http://www.w3.org/2000/svg">
<path d="M8.00016 1.33301C5.42016 1.33301 3.3335 3.41967 3.3335 5.99967C3.3335 9.49967 8.00016 14.6663 8.00016 14.6663C8.00016 14.6663 12.6668 9.49967 12.6668 5.99967C12.6668 3.41967 10.5802 1.33301 8.00016 1.33301ZM8.00016 7.66634C7.55814 7.66634 7.13421 7.49075 6.82165 7.17819C6.50909 6.86562 6.3335 6.4417 6.3335 5.99967C6.3335 5.55765 6.50909 5.13372 6.82165 4.82116C7.13421 4.5086 7.55814 4.33301 8.00016 4.33301C8.44219 4.33301 8.86611 4.5086 9.17867 4.82116C9.49123 5.13372 9.66683 5.55765 9.66683 5.99967C9.66683 6.4417 9.49123 6.86562 9.17867 7.17819C8.86611 7.49075 8.44219 7.66634 8.00016 7.66634Z" fill="#8F8F8F"/>
</svg>
