<svg width="24" height="24" viewBox="0 0 24 24" fill="none" xmlns="http://www.w3.org/2000/svg">
<path d="M16.7537 11.4082C16.6763 11.3301 16.5842 11.2681 16.4827 11.2258C16.3813 11.1835 16.2724 11.1618 16.1625 11.1618C16.0526 11.1618 15.9438 11.1835 15.8423 11.2258C15.7408 11.2681 15.6488 11.3301 15.5713 11.4082L12.8319 14.1582V7.83332C12.8319 7.61231 12.7442 7.40035 12.5881 7.24407C12.4319 7.0878 12.2201 7 11.9993 7C11.7785 7 11.5667 7.0878 11.4105 7.24407C11.2544 7.40035 11.1666 7.61231 11.1666 7.83332V14.1582L8.42723 11.4082C8.27044 11.2513 8.05779 11.1632 7.83605 11.1632C7.61432 11.1632 7.40167 11.2513 7.24487 11.4082C7.08808 11.5652 7 11.778 7 11.9999C7 12.2218 7.08808 12.4346 7.24487 12.5916L11.4081 16.7581C11.4873 16.834 11.5807 16.8935 11.6829 16.9331C11.7826 16.9772 11.8903 17 11.9993 17C12.1083 17 12.216 16.9772 12.3157 16.9331C12.4179 16.8935 12.5113 16.834 12.5905 16.7581L16.7537 12.5916C16.8317 12.5141 16.8937 12.4219 16.936 12.3204C16.9782 12.2188 17 12.1099 17 11.9999C17 11.8899 16.9782 11.781 16.936 11.6794C16.8937 11.5779 16.8317 11.4857 16.7537 11.4082Z" fill="black"/>
</svg>
