<svg width="16" height="16" viewBox="0 0 16 16" fill="none" xmlns="http://www.w3.org/2000/svg">
<path d="M7.41462 3.40134C7.31599 3.13281 7.11835 2.91221 6.86224 2.78478C6.60613 2.65734 6.31096 2.63273 6.03729 2.716C4.73995 3.116 3.83329 4.22934 4.02795 5.51734C4.24567 6.94685 4.73007 8.32273 5.45596 9.57334C6.17407 10.8211 7.1155 11.9261 8.23329 12.8333C9.23862 13.6467 10.6493 13.4227 11.644 12.4893C11.8532 12.293 11.9801 12.0245 11.9992 11.7382C12.0182 11.4519 11.928 11.169 11.7466 10.9467L11.0346 10.076C10.892 9.90092 10.7001 9.77274 10.4837 9.70807C10.2674 9.6434 10.0366 9.64524 9.82129 9.71334L8.17862 10.2333L7.89196 9.93734C7.53076 9.56273 7.21482 9.14699 6.95062 8.69867C6.6942 8.24529 6.49448 7.76211 6.35596 7.26L6.24529 6.86667L7.51195 5.7C7.6791 5.54481 7.79635 5.34344 7.84881 5.12147C7.90128 4.8995 7.88659 4.66694 7.80662 4.45334L7.41462 3.40134ZM5.64529 1.44134C6.24416 1.25811 6.89043 1.31084 7.45167 1.58874C8.01292 1.86663 8.44664 2.34864 8.66396 2.936L9.05462 3.98667C9.22696 4.44826 9.25813 4.95068 9.14417 5.43003C9.0302 5.90939 8.77626 6.34402 8.41462 6.67867L7.76129 7.28C7.84529 7.512 7.95862 7.77734 8.10529 8.03467C8.25196 8.288 8.42262 8.51867 8.57862 8.70667L9.41862 8.44C9.88824 8.29174 10.3915 8.28783 10.8634 8.4288C11.3353 8.56976 11.754 8.8491 12.0653 9.23067L12.7773 10.1013C13.173 10.5852 13.3702 11.2013 13.3291 11.825C13.288 12.4487 13.0117 13.0335 12.556 13.4613C11.2306 14.7053 9.06662 15.2213 7.39596 13.8693C6.15108 12.8594 5.10253 11.6292 4.30262 10.24C3.49282 8.84512 2.95233 7.31049 2.70929 5.716C2.38929 3.592 3.91329 1.97467 5.64529 1.44267" fill="#1795F0"/>
</svg>
