<svg width="24" height="24" viewBox="0 0 24 24" fill="none" xmlns="http://www.w3.org/2000/svg">
<path d="M7.2463 12.5918C7.3237 12.6699 7.41579 12.7319 7.51726 12.7742C7.61872 12.8165 7.72756 12.8382 7.83748 12.8382C7.94739 12.8382 8.05623 12.8165 8.15769 12.7742C8.25916 12.7319 8.35125 12.6699 8.42865 12.5918L11.1681 9.8418L11.1681 16.1667C11.1681 16.3877 11.2558 16.5996 11.4119 16.7559C11.5681 16.9122 11.7799 17 12.0007 17C12.2215 17 12.4333 16.9122 12.5895 16.7559C12.7456 16.5996 12.8334 16.3877 12.8334 16.1667L12.8334 9.84181L15.5728 12.5918C15.7296 12.7487 15.9422 12.8368 16.1639 12.8368C16.3857 12.8368 16.5983 12.7487 16.7551 12.5918C16.9119 12.4348 17 12.222 17 12.0001C17 11.7782 16.9119 11.5654 16.7551 11.4084L12.5919 7.24186C12.5127 7.16599 12.4193 7.10652 12.3171 7.06686C12.2174 7.02277 12.1097 7 12.0007 7C11.8917 7 11.784 7.02277 11.6843 7.06686C11.5821 7.10652 11.4887 7.16599 11.4095 7.24186L7.2463 11.4084C7.16825 11.4859 7.10631 11.5781 7.06404 11.6796C7.02176 11.7812 7 11.8901 7 12.0001C7 12.1101 7.02176 12.219 7.06404 12.3206C7.10631 12.4221 7.16825 12.5143 7.2463 12.5918Z" fill="black"/>
</svg>
