<svg width="16" height="16" viewBox="0 0 16 16" fill="none" xmlns="http://www.w3.org/2000/svg">
<path d="M10.6665 7.33301C11.7732 7.33301 12.6598 6.43967 12.6598 5.33301C12.6598 4.22634 11.7732 3.33301 10.6665 3.33301C9.55984 3.33301 8.6665 4.22634 8.6665 5.33301C8.6665 6.43967 9.55984 7.33301 10.6665 7.33301ZM5.33317 7.33301C6.43984 7.33301 7.3265 6.43967 7.3265 5.33301C7.3265 4.22634 6.43984 3.33301 5.33317 3.33301C4.2265 3.33301 3.33317 4.22634 3.33317 5.33301C3.33317 6.43967 4.2265 7.33301 5.33317 7.33301ZM5.33317 8.66634C3.77984 8.66634 0.666504 9.44634 0.666504 10.9997V11.9997C0.666504 12.3663 0.966504 12.6663 1.33317 12.6663H9.33317C9.69984 12.6663 9.99984 12.3663 9.99984 11.9997V10.9997C9.99984 9.44634 6.8865 8.66634 5.33317 8.66634ZM10.6665 8.66634C10.4732 8.66634 10.2532 8.67967 10.0198 8.69967C10.0332 8.70634 10.0398 8.71967 10.0465 8.72634C10.8065 9.27967 11.3332 10.0197 11.3332 10.9997V11.9997C11.3332 12.233 11.2865 12.4597 11.2132 12.6663H14.6665C15.0332 12.6663 15.3332 12.3663 15.3332 11.9997V10.9997C15.3332 9.44634 12.2198 8.66634 10.6665 8.66634Z" fill="#8F8F8F"/>
</svg>
