<svg width="36" height="36" viewBox="0 0 36 36" fill="none" xmlns="http://www.w3.org/2000/svg">
<path fill-rule="evenodd" clip-rule="evenodd" d="M12 8.625C12 8.32663 12.1185 8.04048 12.3295 7.8295C12.5405 7.61853 12.8266 7.5 13.125 7.5C13.4234 7.5 13.7095 7.61853 13.9205 7.8295C14.1315 8.04048 14.25 8.32663 14.25 8.625V10.5H21.75V8.625C21.75 8.32663 21.8685 8.04048 22.0795 7.8295C22.2905 7.61853 22.5766 7.5 22.875 7.5C23.1734 7.5 23.4595 7.61853 23.6705 7.8295C23.8815 8.04048 24 8.32663 24 8.625V10.5C24.7956 10.5 25.5587 10.8161 26.1213 11.3787C26.6839 11.9413 27 12.7044 27 13.5V24C27 24.7956 26.6839 25.5587 26.1213 26.1213C25.5587 26.6839 24.7956 27 24 27H12C11.2044 27 10.4413 26.6839 9.87868 26.1213C9.31607 25.5587 9 24.7956 9 24V13.5C9 12.7044 9.31607 11.9413 9.87868 11.3787C10.4413 10.8161 11.2044 10.5 12 10.5V8.625ZM12.75 15C12.3522 15 11.9706 15.158 11.6893 15.4393C11.408 15.7206 11.25 16.1022 11.25 16.5V23.25C11.25 23.6478 11.408 24.0294 11.6893 24.3107C11.9706 24.592 12.3522 24.75 12.75 24.75H23.25C23.6478 24.75 24.0294 24.592 24.3107 24.3107C24.592 24.0294 24.75 23.6478 24.75 23.25V16.5C24.75 16.1022 24.592 15.7206 24.3107 15.4393C24.0294 15.158 23.6478 15 23.25 15H12.75Z" fill="#8F8F8F"/>
</svg>
