<svg width="36" height="36" viewBox="0 0 36 36" fill="none" xmlns="http://www.w3.org/2000/svg">
<path d="M27.75 26.0625L21.9338 20.2453C22.8711 18.9572 23.3753 17.4049 23.3738 15.8119C23.3738 11.6423 19.9814 8.25 15.8119 8.25C11.6423 8.25 8.25 11.6423 8.25 15.8119C8.25 19.9814 11.6423 23.3738 15.8119 23.3738C17.4049 23.3753 18.9572 22.8711 20.2453 21.9338L26.0625 27.75L27.75 26.0625ZM15.8119 20.9855C14.7885 20.9856 13.7881 20.6822 12.9371 20.1137C12.0862 19.5452 11.423 18.7371 11.0313 17.7917C10.6396 16.8462 10.5371 15.8058 10.7367 14.8021C10.9364 13.7984 11.4292 12.8764 12.1528 12.1528C12.8764 11.4292 13.7984 10.9364 14.8021 10.7367C15.8058 10.5371 16.8462 10.6396 17.7917 11.0313C18.7371 11.423 19.5452 12.0862 20.1137 12.9371C20.6822 13.7881 20.9856 14.7885 20.9855 15.8119C20.9839 17.1835 20.4383 18.4985 19.4684 19.4684C18.4985 20.4383 17.1835 20.9839 15.8119 20.9855Z" fill="black"/>
</svg>
