<svg width="22" height="22" viewBox="0 0 22 22" fill="none" xmlns="http://www.w3.org/2000/svg">
<path d="M11.1974 4C12.7908 4 14.2658 4.28095 15.3689 4.76365C15.9191 5.00466 16.408 5.30902 16.7681 5.68224C17.1021 6.02654 17.35 6.45898 17.3892 6.96028L17.3947 7.09868V13.9846C17.3947 14.5452 17.1324 15.0244 16.7681 15.4011C16.408 15.7743 15.9191 16.0787 15.3689 16.3197C14.2658 16.8017 12.7908 17.0833 11.1974 17.0833C9.60396 17.0833 8.12898 16.8024 7.02585 16.3197C6.47566 16.0787 5.98676 15.7743 5.62662 15.4011C5.29265 15.0568 5.04476 14.6244 5.00551 14.1231L5 13.9846V7.09868C5 6.53817 5.26236 6.0589 5.62662 5.68224C5.98676 5.30902 6.47566 5.00466 7.02585 4.76365C8.12898 4.28164 9.60396 4 11.1974 4ZM16.0175 12.5434C15.8088 12.6685 15.5921 12.7798 15.3689 12.8767C14.2658 13.3587 12.7908 13.6404 11.1974 13.6404C9.60396 13.6404 8.12898 13.3594 7.02585 12.8767C6.80261 12.7798 6.58593 12.6685 6.37719 12.5434V13.9846C6.37719 14.0893 6.42264 14.2436 6.61682 14.4439C6.81376 14.6478 7.13189 14.8626 7.57811 15.0582C8.46915 15.4479 9.74787 15.7061 11.1974 15.7061C12.6469 15.7061 13.9256 15.4479 14.8166 15.0582C15.2628 14.8626 15.581 14.6478 15.7779 14.4439C15.9721 14.2443 16.0175 14.0893 16.0175 13.9846V12.5434ZM16.0175 9.10043C15.8088 9.22551 15.5921 9.33684 15.3689 9.43372C14.2658 9.91573 12.7908 10.1974 11.1974 10.1974C9.60396 10.1974 8.12898 9.91642 7.02585 9.43372C6.80261 9.33685 6.58593 9.22552 6.37719 9.10043V10.5417C6.37719 10.6463 6.42264 10.8006 6.61682 11.001C6.81376 11.2048 7.13189 11.4196 7.57811 11.6152C8.46915 12.0049 9.74787 12.2632 11.1974 12.2632C12.6469 12.2632 13.9256 12.0049 14.8166 11.6152C15.2628 11.4196 15.581 11.2048 15.7779 11.001C15.9721 10.8013 16.0175 10.6463 16.0175 10.5417V9.10043ZM11.1974 5.37719C9.74787 5.37719 8.46915 5.63542 7.57811 6.02516C7.13189 6.22072 6.81376 6.43557 6.61682 6.63939C6.42264 6.83908 6.37719 6.99402 6.37719 7.09868C6.37719 7.20335 6.42264 7.3576 6.61682 7.55798C6.81376 7.7618 7.13189 7.97664 7.57811 8.17221C8.46915 8.56195 9.74787 8.82018 11.1974 8.82018C12.6469 8.82018 13.9256 8.56195 14.8166 8.17221C15.2628 7.97664 15.581 7.7618 15.7779 7.55798C15.9721 7.35829 16.0175 7.20335 16.0175 7.09868C16.0175 6.99402 15.9721 6.83977 15.7779 6.63939C15.581 6.43557 15.2628 6.22072 14.8166 6.02516C13.9256 5.63542 12.6469 5.37719 11.1974 5.37719Z" fill="#E9511C"/>
</svg>
