<svg width="30" height="30" viewBox="0 0 30 30" fill="none" xmlns="http://www.w3.org/2000/svg">
<path d="M20.7342 9.2749C20.65 9.19052 20.55 9.12358 20.4399 9.0779C20.3298 9.03223 20.2117 9.00872 20.0925 9.00872C19.9733 9.00872 19.8553 9.03223 19.7452 9.0779C19.6351 9.12358 19.535 9.19052 19.4508 9.2749L15 13.7166L10.5492 9.26579C10.4649 9.18153 10.3649 9.11468 10.2548 9.06908C10.1447 9.02347 10.0267 9 9.90748 9C9.78831 9 9.6703 9.02347 9.5602 9.06908C9.4501 9.11468 9.35006 9.18153 9.26579 9.26579C9.18153 9.35006 9.11468 9.4501 9.06908 9.5602C9.02347 9.6703 9 9.78831 9 9.90748C9 10.0267 9.02347 10.1447 9.06908 10.2548C9.11468 10.3649 9.18153 10.4649 9.26579 10.5492L13.7166 15L9.26579 19.4508C9.18153 19.5351 9.11468 19.6351 9.06908 19.7452C9.02347 19.8553 9 19.9733 9 20.0925C9 20.2117 9.02347 20.3297 9.06908 20.4398C9.11468 20.5499 9.18153 20.6499 9.26579 20.7342C9.35006 20.8185 9.4501 20.8853 9.5602 20.9309C9.6703 20.9765 9.78831 21 9.90748 21C10.0267 21 10.1447 20.9765 10.2548 20.9309C10.3649 20.8853 10.4649 20.8185 10.5492 20.7342L15 16.2834L19.4508 20.7342C19.5351 20.8185 19.6351 20.8853 19.7452 20.9309C19.8553 20.9765 19.9733 21 20.0925 21C20.2117 21 20.3297 20.9765 20.4398 20.9309C20.5499 20.8853 20.6499 20.8185 20.7342 20.7342C20.8185 20.6499 20.8853 20.5499 20.9309 20.4398C20.9765 20.3297 21 20.2117 21 20.0925C21 19.9733 20.9765 19.8553 20.9309 19.7452C20.8853 19.6351 20.8185 19.5351 20.7342 19.4508L16.2834 15L20.7342 10.5492C21.0801 10.2033 21.0801 9.62077 20.7342 9.2749Z" fill="#B7B7B7"/>
</svg>
