<svg width="16" height="16" viewBox="0 0 16 16" fill="none" xmlns="http://www.w3.org/2000/svg">
<path fill-rule="evenodd" clip-rule="evenodd" d="M4 2.69231C4 2.5087 4.07902 2.33261 4.21967 2.20277C4.36032 2.07294 4.55109 2 4.75 2C4.94891 2 5.13968 2.07294 5.28033 2.20277C5.42098 2.33261 5.5 2.5087 5.5 2.69231V3.84615H10.5V2.69231C10.5 2.5087 10.579 2.33261 10.7197 2.20277C10.8603 2.07294 11.0511 2 11.25 2C11.4489 2 11.6397 2.07294 11.7803 2.20277C11.921 2.33261 12 2.5087 12 2.69231V3.84615C12.5304 3.84615 13.0391 4.04066 13.4142 4.38688C13.7893 4.7331 14 5.20268 14 5.69231V12.1538C14 12.6435 13.7893 13.1131 13.4142 13.4593C13.0391 13.8055 12.5304 14 12 14H4C3.46957 14 2.96086 13.8055 2.58579 13.4593C2.21071 13.1131 2 12.6435 2 12.1538V5.69231C2 5.20268 2.21071 4.7331 2.58579 4.38688C2.96086 4.04066 3.46957 3.84615 4 3.84615V2.69231ZM4.5 6.61538C4.23478 6.61538 3.98043 6.71264 3.79289 6.88575C3.60536 7.05886 3.5 7.29365 3.5 7.53846V11.6923C3.5 11.9371 3.60536 12.1719 3.79289 12.345C3.98043 12.5181 4.23478 12.6154 4.5 12.6154H11.5C11.7652 12.6154 12.0196 12.5181 12.2071 12.345C12.3946 12.1719 12.5 11.9371 12.5 11.6923V7.53846C12.5 7.29365 12.3946 7.05886 12.2071 6.88575C12.0196 6.71264 11.7652 6.61538 11.5 6.61538H4.5Z" fill="#005CAA"/>
</svg>
