<svg width="24" height="24" viewBox="0 0 24 24" fill="none" xmlns="http://www.w3.org/2000/svg">
<path fill-rule="evenodd" clip-rule="evenodd" d="M6 2.625C6 2.32663 6.11853 2.04048 6.3295 1.8295C6.54048 1.61853 6.82663 1.5 7.125 1.5C7.42337 1.5 7.70952 1.61853 7.9205 1.8295C8.13147 2.04048 8.25 2.32663 8.25 2.625V4.5H15.75V2.625C15.75 2.32663 15.8685 2.04048 16.0795 1.8295C16.2905 1.61853 16.5766 1.5 16.875 1.5C17.1734 1.5 17.4595 1.61853 17.6705 1.8295C17.8815 2.04048 18 2.32663 18 2.625V4.5C18.7956 4.5 19.5587 4.81607 20.1213 5.37868C20.6839 5.94129 21 6.70435 21 7.5V18C21 18.7956 20.6839 19.5587 20.1213 20.1213C19.5587 20.6839 18.7956 21 18 21H6C5.20435 21 4.44129 20.6839 3.87868 20.1213C3.31607 19.5587 3 18.7956 3 18V7.5C3 6.70435 3.31607 5.94129 3.87868 5.37868C4.44129 4.81607 5.20435 4.5 6 4.5V2.625ZM6.75 9C6.35218 9 5.97064 9.15804 5.68934 9.43934C5.40804 9.72064 5.25 10.1022 5.25 10.5V17.25C5.25 17.6478 5.40804 18.0294 5.68934 18.3107C5.97064 18.592 6.35218 18.75 6.75 18.75H17.25C17.6478 18.75 18.0294 18.592 18.3107 18.3107C18.592 18.0294 18.75 17.6478 18.75 17.25V10.5C18.75 10.1022 18.592 9.72064 18.3107 9.43934C18.0294 9.15804 17.6478 9 17.25 9H6.75Z" fill="#8F8F8F"/>
</svg>
