<svg width="107" height="320" viewBox="0 0 107 320" fill="none" xmlns="http://www.w3.org/2000/svg">
<g clip-path="url(#clip0_123_207)">
<path d="M84.4438 317.333L22.2217 317.333L22.2217 312L84.4438 312L84.4438 317.333ZM84.4438 309.333L22.2217 309.333L22.2217 304L84.4438 304L84.4438 309.333ZM84.4438 301.333L22.2217 301.333L22.2217 298.666L84.4438 298.666L84.4438 301.333ZM84.4438 293.333L22.2217 293.333L22.2217 288L84.4438 288L84.4438 293.333ZM84.4438 285.333L22.2217 285.333L22.2217 277.333L84.4438 277.333L84.4438 285.333ZM84.4438 274.666L22.2217 274.666L22.2217 272L84.4438 272L84.4438 274.666ZM84.4438 266.666L22.2217 266.666L22.2217 258.666L84.4438 258.666L84.4438 266.666Z" fill="black"/>
</g>
<g clip-path="url(#clip1_123_207)">
<path d="M84.4438 253.333L22.2217 253.333L22.2217 248L84.4438 248L84.4438 253.333ZM84.4438 245.333L22.2217 245.333L22.2217 240L84.4438 240L84.4438 245.333ZM84.4438 237.333L22.2217 237.333L22.2217 234.666L84.4438 234.666L84.4438 237.333ZM84.4438 229.333L22.2217 229.333L22.2217 224L84.4438 224L84.4438 229.333ZM84.4438 221.333L22.2217 221.333L22.2217 213.333L84.4438 213.333L84.4438 221.333ZM84.4438 210.666L22.2217 210.666L22.2217 208L84.4438 208L84.4438 210.666ZM84.4438 202.666L22.2217 202.666L22.2217 194.666L84.4438 194.666L84.4438 202.666Z" fill="black"/>
</g>
<g clip-path="url(#clip2_123_207)">
<path d="M84.4438 189.334L22.2217 189.334L22.2217 184.001L84.4438 184.001L84.4438 189.334ZM84.4438 181.334L22.2217 181.334L22.2217 176.001L84.4438 176.001L84.4438 181.334ZM84.4438 173.334L22.2217 173.334L22.2217 170.667L84.4438 170.667L84.4438 173.334ZM84.4438 165.334L22.2217 165.334L22.2217 160.001L84.4438 160.001L84.4438 165.334ZM84.4438 157.334L22.2217 157.334L22.2217 149.334L84.4438 149.334L84.4438 157.334ZM84.4438 146.667L22.2217 146.667L22.2217 144.001L84.4438 144.001L84.4438 146.667ZM84.4438 138.667L22.2217 138.667L22.2217 130.667L84.4438 130.667L84.4438 138.667Z" fill="black"/>
</g>
<g clip-path="url(#clip3_123_207)">
<path d="M84.4438 125.333L22.2217 125.333L22.2217 120L84.4438 120L84.4438 125.333ZM84.4438 117.333L22.2217 117.333L22.2217 112L84.4438 112L84.4438 117.333ZM84.4438 109.333L22.2217 109.333L22.2217 106.666L84.4438 106.666L84.4438 109.333ZM84.4438 101.333L22.2217 101.333L22.2217 95.9997L84.4438 95.9997L84.4438 101.333ZM84.4438 93.333L22.2217 93.333L22.2217 85.3331L84.4438 85.3331L84.4438 93.333ZM84.4438 82.6664L22.2217 82.6664L22.2217 79.9997L84.4438 79.9997L84.4438 82.6664ZM84.4438 74.6664L22.2217 74.6664L22.2217 66.6664L84.4438 66.6664L84.4438 74.6664Z" fill="black"/>
</g>
<g clip-path="url(#clip4_123_207)">
<path d="M84.4438 61.333L22.2217 61.333L22.2217 55.9997L84.4438 55.9997L84.4438 61.333ZM84.4438 53.333L22.2217 53.333L22.2217 47.9997L84.4438 47.9997L84.4438 53.333ZM84.4438 45.333L22.2217 45.333L22.2217 42.6664L84.4438 42.6664L84.4438 45.333ZM84.4438 37.333L22.2217 37.333L22.2217 31.9997L84.4438 31.9997L84.4438 37.333ZM84.4438 29.333L22.2217 29.333L22.2217 21.3331L84.4438 21.3331L84.4438 29.333ZM84.4438 18.6664L22.2217 18.6664L22.2217 15.9997L84.4438 15.9997L84.4438 18.6664ZM84.4438 10.6664L22.2217 10.6664L22.2217 2.66641L84.4438 2.66641L84.4438 10.6664Z" fill="black"/>
</g>
<defs>
<clipPath id="clip0_123_207">
<rect width="63.9999" height="106.667" fill="white" transform="translate(0 320) rotate(-90)"/>
</clipPath>
<clipPath id="clip1_123_207">
<rect width="63.9999" height="106.667" fill="white" transform="translate(0 256) rotate(-90)"/>
</clipPath>
<clipPath id="clip2_123_207">
<rect width="63.9999" height="106.667" fill="white" transform="translate(0 192.001) rotate(-90)"/>
</clipPath>
<clipPath id="clip3_123_207">
<rect width="63.9999" height="106.667" fill="white" transform="translate(0 128) rotate(-90)"/>
</clipPath>
<clipPath id="clip4_123_207">
<rect width="63.9999" height="106.667" fill="white" transform="translate(0 64) rotate(-90)"/>
</clipPath>
</defs>
</svg>
