<svg width="206" height="60" viewBox="0 0 206 60" fill="none" xmlns="http://www.w3.org/2000/svg">
<path d="M132.652 41.3945H135.855V43.3086H135.953C136.142 42.6315 136.454 42.1172 136.891 41.7656C137.333 41.4141 137.854 41.2383 138.453 41.2383C138.714 41.2383 139.026 41.2773 139.391 41.3555V44.2266C139.241 44.181 139.039 44.1452 138.785 44.1191C138.531 44.0866 138.297 44.0703 138.082 44.0703C137.672 44.0703 137.304 44.1615 136.979 44.3438C136.66 44.5195 136.409 44.7702 136.227 45.0957C136.044 45.4147 135.953 45.7826 135.953 46.1992V52H132.652V41.3945Z" fill="#005CAA"/>
<path d="M125.953 52.1953C124.853 52.1953 123.899 51.9772 123.092 51.541C122.291 51.0983 121.676 50.4701 121.246 49.6562C120.816 48.8359 120.602 47.8659 120.602 46.7461C120.602 45.6589 120.816 44.7018 121.246 43.875C121.676 43.0417 122.285 42.3971 123.072 41.9414C123.867 41.4857 124.788 41.2578 125.836 41.2578C126.839 41.2578 127.724 41.4661 128.492 41.8828C129.267 42.2995 129.869 42.9147 130.299 43.7285C130.735 44.5423 130.953 45.5221 130.953 46.668V47.5078H123.844V47.5664C123.844 48.25 124.039 48.7969 124.43 49.207C124.82 49.6107 125.348 49.8125 126.012 49.8125C126.454 49.8125 126.835 49.7246 127.154 49.5488C127.48 49.3665 127.711 49.1159 127.848 48.7969H130.914C130.784 49.487 130.501 50.0892 130.064 50.6035C129.628 51.1113 129.059 51.5052 128.355 51.7852C127.659 52.0586 126.858 52.1953 125.953 52.1953ZM127.887 45.5742C127.88 45.2031 127.792 44.8711 127.623 44.5781C127.454 44.2852 127.219 44.0573 126.92 43.8945C126.62 43.7253 126.285 43.6406 125.914 43.6406C125.53 43.6406 125.182 43.7253 124.869 43.8945C124.563 44.0638 124.319 44.2949 124.137 44.5879C123.954 44.8809 123.857 45.2096 123.844 45.5742H127.887Z" fill="#005CAA"/>
<path d="M112.105 52H108.805V41.3945H111.93V43.3281H112.047C112.294 42.6771 112.698 42.1693 113.258 41.8047C113.824 41.4401 114.495 41.2578 115.27 41.2578C116.005 41.2578 116.65 41.4238 117.203 41.7559C117.763 42.0814 118.193 42.5469 118.492 43.1523C118.798 43.7513 118.948 44.4479 118.941 45.2422V52H115.66V45.8672C115.66 45.2682 115.507 44.7995 115.201 44.4609C114.895 44.1224 114.469 43.9531 113.922 43.9531C113.368 43.9531 112.926 44.1289 112.594 44.4805C112.268 44.832 112.105 45.3138 112.105 45.9258V52Z" fill="#005CAA"/>
<path d="M99.8984 52H96.5977V41.3945H99.7227V43.3281H99.8398C100.087 42.6771 100.491 42.1693 101.051 41.8047C101.617 41.4401 102.288 41.2578 103.062 41.2578C103.798 41.2578 104.443 41.4238 104.996 41.7559C105.556 42.0814 105.986 42.5469 106.285 43.1523C106.591 43.7513 106.741 44.4479 106.734 45.2422V52H103.453V45.8672C103.453 45.2682 103.3 44.7995 102.994 44.4609C102.688 44.1224 102.262 43.9531 101.715 43.9531C101.161 43.9531 100.719 44.1289 100.387 44.4805C100.061 44.832 99.8984 45.3138 99.8984 45.9258V52Z" fill="#005CAA"/>
<path d="M84.8203 49.0508C84.8203 47.957 85.1816 47.1497 85.9043 46.6289C86.627 46.1081 87.5742 45.8086 88.7461 45.7305C89.332 45.6914 90.0482 45.6589 90.8945 45.6328C90.9987 45.6198 91.1289 45.6133 91.2852 45.6133V44.7539C91.2852 44.3828 91.1582 44.0996 90.9043 43.9043C90.6504 43.7025 90.2956 43.6016 89.8398 43.6016C89.3971 43.6016 89.0423 43.6927 88.7754 43.875C88.5085 44.0573 88.3424 44.3242 88.2773 44.6758H85.2109C85.2565 44.0378 85.4648 43.4616 85.8359 42.9473C86.2135 42.4264 86.7474 42.0163 87.4375 41.7168C88.1341 41.4108 88.9609 41.2578 89.918 41.2578C90.8034 41.2578 91.5977 41.3978 92.3008 41.6777C93.0104 41.9512 93.5671 42.3548 93.9707 42.8887C94.3809 43.416 94.5859 44.0508 94.5859 44.793V52H91.4805V50.5156H91.4023C91.1029 51.0625 90.696 51.4792 90.1816 51.7656C89.6673 52.0521 89.0456 52.1953 88.3164 52.1953C87.6263 52.1953 87.0176 52.0781 86.4902 51.8438C85.9694 51.6094 85.5592 51.2578 85.2598 50.7891C84.9668 50.3138 84.8203 49.7344 84.8203 49.0508ZM87.9453 48.9141C87.9453 49.2656 88.069 49.5358 88.3164 49.7246C88.5703 49.9134 88.9023 50.0078 89.3125 50.0078C89.6836 50.0078 90.0221 49.9329 90.3281 49.7832C90.6341 49.6335 90.875 49.4251 91.0508 49.1582C91.2266 48.8848 91.3112 48.5755 91.3047 48.2305V47.5469H91.1094L89.293 47.6641C88.8763 47.7161 88.5475 47.8529 88.3066 48.0742C88.0658 48.2891 87.9453 48.569 87.9453 48.9141Z" fill="#005CAA"/>
<path d="M83.1992 52H79.8984V37.8594H83.1992V52Z" fill="#005CAA"/>
<path d="M67.3203 37.8594H73.1016C74.1432 37.8594 75.0514 38.0645 75.8262 38.4746C76.6009 38.8848 77.1966 39.4577 77.6133 40.1934C78.0299 40.9225 78.2383 41.7656 78.2383 42.7227C78.2383 43.6927 78.0267 44.5456 77.6035 45.2812C77.1803 46.0104 76.5749 46.5736 75.7871 46.9707C74.9993 47.3678 74.0716 47.5664 73.0039 47.5664H70.6406V52H67.3203V37.8594ZM72.3984 44.9297C73.1667 44.9297 73.7591 44.7311 74.1758 44.334C74.5924 43.9368 74.8008 43.3997 74.8008 42.7227C74.8008 42.0456 74.5924 41.515 74.1758 41.1309C73.7591 40.7467 73.1667 40.5547 72.3984 40.5547H70.6406V44.9297H72.3984Z" fill="#005CAA"/>
<path d="M50.4844 41.3945H53.7461V43.2109H53.8633C54.0911 42.6576 54.4525 42.1953 54.9473 41.8242C55.4421 41.4466 56.0768 41.2578 56.8516 41.2578C57.6263 41.2578 58.3327 41.4596 58.9707 41.8633C59.6152 42.2604 60.1296 42.8691 60.5137 43.6895C60.8978 44.5098 61.0898 45.5156 61.0898 46.707C61.0898 47.8659 60.901 48.8555 60.5234 49.6758C60.1523 50.4961 59.6445 51.1146 59 51.5312C58.362 51.9479 57.6458 52.1562 56.8516 52.1562C56.0898 52.1562 55.4583 51.9805 54.957 51.6289C54.4557 51.2708 54.0911 50.8216 53.8633 50.2812H53.7852V55.9844H50.4844V41.3945ZM53.707 46.6875C53.707 47.5729 53.8828 48.276 54.2344 48.7969C54.5924 49.3177 55.0872 49.5781 55.7188 49.5781C56.3568 49.5781 56.8483 49.321 57.1934 48.8066C57.5384 48.2858 57.7109 47.5794 57.7109 46.6875C57.7109 45.8151 57.5352 45.1217 57.1836 44.6074C56.8385 44.0931 56.3503 43.8359 55.7188 43.8359C55.0872 43.8359 54.5924 44.0898 54.2344 44.5977C53.8828 45.1055 53.707 45.8021 53.707 46.6875Z" fill="#005CAA"/>
<path d="M45.0742 41.3945H48.375V52H45.0742V41.3945ZM46.7344 40.125C46.4284 40.125 46.1452 40.0566 45.8848 39.9199C45.6243 39.7767 45.416 39.5846 45.2598 39.3438C45.11 39.0964 45.0352 38.8294 45.0352 38.543C45.0352 38.2565 45.11 37.9928 45.2598 37.752C45.416 37.5046 45.6243 37.3125 45.8848 37.1758C46.1452 37.0326 46.4284 36.9609 46.7344 36.9609C47.0404 36.9609 47.3236 37.0326 47.584 37.1758C47.8509 37.3125 48.0625 37.5046 48.2188 37.752C48.375 37.9928 48.4531 38.2565 48.4531 38.543C48.4531 38.8294 48.375 39.0964 48.2188 39.3438C48.0625 39.5846 47.8509 39.7767 47.584 39.9199C47.3236 40.0566 47.0404 40.125 46.7344 40.125Z" fill="#005CAA"/>
<path d="M37.0078 41.3945H40.2109V43.3086H40.3086C40.4974 42.6315 40.8099 42.1172 41.2461 41.7656C41.6888 41.4141 42.2096 41.2383 42.8086 41.2383C43.069 41.2383 43.3815 41.2773 43.7461 41.3555V44.2266C43.5964 44.181 43.3945 44.1452 43.1406 44.1191C42.8867 44.0866 42.6523 44.0703 42.4375 44.0703C42.0273 44.0703 41.6595 44.1615 41.334 44.3438C41.015 44.5195 40.7643 44.7702 40.582 45.0957C40.3997 45.4147 40.3086 45.7826 40.3086 46.1992V52H37.0078V41.3945Z" fill="#005CAA"/>
<path d="M24.5859 37.8594H36.4805V40.5742H32.1836V52H28.8828V40.5742H24.5859V37.8594Z" fill="#005CAA"/>
<path d="M14.9998 53.5003V41.0003H16.6665C17.1248 41.0003 17.5173 41.1637 17.844 41.4903C18.1707 41.817 18.3337 42.2092 18.3332 42.667V51.8337C18.3332 52.292 18.1701 52.6845 17.844 53.0112C17.5179 53.3378 17.1254 53.5009 16.6665 53.5003H14.9998ZM8.33317 41.0003H11.6665V39.3337H8.33317V41.0003ZM6.6665 53.5003V39.3337C6.6665 38.8753 6.82984 38.4831 7.1565 38.157C7.48317 37.8309 7.87539 37.6675 8.33317 37.667H11.6665C12.1248 37.667 12.5173 37.8303 12.844 38.157C13.1707 38.4837 13.3337 38.8759 13.3332 39.3337V53.5003H6.6665ZM3.33317 53.5003C2.87484 53.5003 2.48262 53.3373 2.1565 53.0112C1.83039 52.685 1.66706 52.2925 1.6665 51.8337V42.667C1.6665 42.2087 1.82984 41.8164 2.1565 41.4903C2.48317 41.1642 2.87539 41.0009 3.33317 41.0003H4.99984V53.5003H3.33317Z" fill="#005CAA"/>
<path d="M198.755 7.22427C200.415 8.88478 200.415 11.5585 198.755 13.1909L187.812 24.139L193.776 50.0035L189.809 54L178.894 33.0888L167.923 44.0651L168.935 51.0167L165.925 54L160.974 45.0501L152 40.0686L154.982 37.029L162.015 38.0704L172.902 27.1785L152 16.1741L155.995 12.2058L181.848 18.1724L192.791 7.22427C194.367 5.59191 197.18 5.59191 198.755 7.22427Z" fill="#F4F5EF"/>
</svg>
