<svg width="140" height="20" viewBox="0 0 140 20" fill="none" xmlns="http://www.w3.org/2000/svg">
<path d="M132.652 5.39453H135.855V7.30859H135.953C136.142 6.63151 136.454 6.11719 136.891 5.76562C137.333 5.41406 137.854 5.23828 138.453 5.23828C138.714 5.23828 139.026 5.27734 139.391 5.35547V8.22656C139.241 8.18099 139.039 8.14518 138.785 8.11914C138.531 8.08659 138.297 8.07031 138.082 8.07031C137.672 8.07031 137.304 8.16146 136.979 8.34375C136.66 8.51953 136.409 8.77018 136.227 9.0957C136.044 9.41471 135.953 9.78255 135.953 10.1992V16H132.652V5.39453Z" fill="white"/>
<path d="M125.953 16.1953C124.853 16.1953 123.899 15.9772 123.092 15.541C122.291 15.0983 121.676 14.4701 121.246 13.6562C120.816 12.8359 120.602 11.8659 120.602 10.7461C120.602 9.65885 120.816 8.70182 121.246 7.875C121.676 7.04167 122.285 6.39714 123.072 5.94141C123.867 5.48568 124.788 5.25781 125.836 5.25781C126.839 5.25781 127.724 5.46615 128.492 5.88281C129.267 6.29948 129.869 6.91471 130.299 7.72852C130.735 8.54232 130.953 9.52214 130.953 10.668V11.5078H123.844V11.5664C123.844 12.25 124.039 12.7969 124.43 13.207C124.82 13.6107 125.348 13.8125 126.012 13.8125C126.454 13.8125 126.835 13.7246 127.154 13.5488C127.48 13.3665 127.711 13.1159 127.848 12.7969H130.914C130.784 13.487 130.501 14.0892 130.064 14.6035C129.628 15.1113 129.059 15.5052 128.355 15.7852C127.659 16.0586 126.858 16.1953 125.953 16.1953ZM127.887 9.57422C127.88 9.20312 127.792 8.87109 127.623 8.57812C127.454 8.28516 127.219 8.05729 126.92 7.89453C126.62 7.72526 126.285 7.64062 125.914 7.64062C125.53 7.64062 125.182 7.72526 124.869 7.89453C124.563 8.0638 124.319 8.29492 124.137 8.58789C123.954 8.88086 123.857 9.20964 123.844 9.57422H127.887Z" fill="white"/>
<path d="M112.105 16H108.805V5.39453H111.93V7.32812H112.047C112.294 6.67708 112.698 6.16927 113.258 5.80469C113.824 5.4401 114.495 5.25781 115.27 5.25781C116.005 5.25781 116.65 5.42383 117.203 5.75586C117.763 6.08138 118.193 6.54688 118.492 7.15234C118.798 7.7513 118.948 8.44792 118.941 9.24219V16H115.66V9.86719C115.66 9.26823 115.507 8.79948 115.201 8.46094C114.895 8.1224 114.469 7.95312 113.922 7.95312C113.368 7.95312 112.926 8.12891 112.594 8.48047C112.268 8.83203 112.105 9.3138 112.105 9.92578V16Z" fill="white"/>
<path d="M99.8984 16H96.5977V5.39453H99.7227V7.32812H99.8398C100.087 6.67708 100.491 6.16927 101.051 5.80469C101.617 5.4401 102.288 5.25781 103.062 5.25781C103.798 5.25781 104.443 5.42383 104.996 5.75586C105.556 6.08138 105.986 6.54688 106.285 7.15234C106.591 7.7513 106.741 8.44792 106.734 9.24219V16H103.453V9.86719C103.453 9.26823 103.3 8.79948 102.994 8.46094C102.688 8.1224 102.262 7.95312 101.715 7.95312C101.161 7.95312 100.719 8.12891 100.387 8.48047C100.061 8.83203 99.8984 9.3138 99.8984 9.92578V16Z" fill="white"/>
<path d="M84.8203 13.0508C84.8203 11.957 85.1816 11.1497 85.9043 10.6289C86.627 10.1081 87.5742 9.80859 88.7461 9.73047C89.332 9.69141 90.0482 9.65885 90.8945 9.63281C90.9987 9.61979 91.1289 9.61328 91.2852 9.61328V8.75391C91.2852 8.38281 91.1582 8.09961 90.9043 7.9043C90.6504 7.70247 90.2956 7.60156 89.8398 7.60156C89.3971 7.60156 89.0423 7.69271 88.7754 7.875C88.5085 8.05729 88.3424 8.32422 88.2773 8.67578H85.2109C85.2565 8.03776 85.4648 7.46159 85.8359 6.94727C86.2135 6.42643 86.7474 6.01628 87.4375 5.7168C88.1341 5.41081 88.9609 5.25781 89.918 5.25781C90.8034 5.25781 91.5977 5.39779 92.3008 5.67773C93.0104 5.95117 93.5671 6.35482 93.9707 6.88867C94.3809 7.41602 94.5859 8.05078 94.5859 8.79297V16H91.4805V14.5156H91.4023C91.1029 15.0625 90.696 15.4792 90.1816 15.7656C89.6673 16.0521 89.0456 16.1953 88.3164 16.1953C87.6263 16.1953 87.0176 16.0781 86.4902 15.8438C85.9694 15.6094 85.5592 15.2578 85.2598 14.7891C84.9668 14.3138 84.8203 13.7344 84.8203 13.0508ZM87.9453 12.9141C87.9453 13.2656 88.069 13.5358 88.3164 13.7246C88.5703 13.9134 88.9023 14.0078 89.3125 14.0078C89.6836 14.0078 90.0221 13.9329 90.3281 13.7832C90.6341 13.6335 90.875 13.4251 91.0508 13.1582C91.2266 12.8848 91.3112 12.5755 91.3047 12.2305V11.5469H91.1094L89.293 11.6641C88.8763 11.7161 88.5475 11.8529 88.3066 12.0742C88.0658 12.2891 87.9453 12.569 87.9453 12.9141Z" fill="white"/>
<path d="M83.1992 16H79.8984V1.85938H83.1992V16Z" fill="white"/>
<path d="M67.3203 1.85938H73.1016C74.1432 1.85938 75.0514 2.06445 75.8262 2.47461C76.6009 2.88477 77.1966 3.45768 77.6133 4.19336C78.0299 4.92253 78.2383 5.76562 78.2383 6.72266C78.2383 7.69271 78.0267 8.54557 77.6035 9.28125C77.1803 10.0104 76.5749 10.5736 75.7871 10.9707C74.9993 11.3678 74.0716 11.5664 73.0039 11.5664H70.6406V16H67.3203V1.85938ZM72.3984 8.92969C73.1667 8.92969 73.7591 8.73112 74.1758 8.33398C74.5924 7.93685 74.8008 7.39974 74.8008 6.72266C74.8008 6.04557 74.5924 5.51497 74.1758 5.13086C73.7591 4.74674 73.1667 4.55469 72.3984 4.55469H70.6406V8.92969H72.3984Z" fill="white"/>
<path d="M50.4844 5.39453H53.7461V7.21094H53.8633C54.0911 6.65755 54.4525 6.19531 54.9473 5.82422C55.4421 5.44661 56.0768 5.25781 56.8516 5.25781C57.6263 5.25781 58.3327 5.45964 58.9707 5.86328C59.6152 6.26042 60.1296 6.86914 60.5137 7.68945C60.8978 8.50977 61.0898 9.51562 61.0898 10.707C61.0898 11.8659 60.901 12.8555 60.5234 13.6758C60.1523 14.4961 59.6445 15.1146 59 15.5312C58.362 15.9479 57.6458 16.1562 56.8516 16.1562C56.0898 16.1562 55.4583 15.9805 54.957 15.6289C54.4557 15.2708 54.0911 14.8216 53.8633 14.2812H53.7852V19.9844H50.4844V5.39453ZM53.707 10.6875C53.707 11.5729 53.8828 12.276 54.2344 12.7969C54.5924 13.3177 55.0872 13.5781 55.7188 13.5781C56.3568 13.5781 56.8483 13.321 57.1934 12.8066C57.5384 12.2858 57.7109 11.5794 57.7109 10.6875C57.7109 9.8151 57.5352 9.12174 57.1836 8.60742C56.8385 8.0931 56.3503 7.83594 55.7188 7.83594C55.0872 7.83594 54.5924 8.08984 54.2344 8.59766C53.8828 9.10547 53.707 9.80208 53.707 10.6875Z" fill="white"/>
<path d="M45.0742 5.39453H48.375V16H45.0742V5.39453ZM46.7344 4.125C46.4284 4.125 46.1452 4.05664 45.8848 3.91992C45.6243 3.77669 45.416 3.58464 45.2598 3.34375C45.11 3.09635 45.0352 2.82943 45.0352 2.54297C45.0352 2.25651 45.11 1.99284 45.2598 1.75195C45.416 1.50456 45.6243 1.3125 45.8848 1.17578C46.1452 1.03255 46.4284 0.960938 46.7344 0.960938C47.0404 0.960938 47.3236 1.03255 47.584 1.17578C47.8509 1.3125 48.0625 1.50456 48.2188 1.75195C48.375 1.99284 48.4531 2.25651 48.4531 2.54297C48.4531 2.82943 48.375 3.09635 48.2188 3.34375C48.0625 3.58464 47.8509 3.77669 47.584 3.91992C47.3236 4.05664 47.0404 4.125 46.7344 4.125Z" fill="white"/>
<path d="M37.0078 5.39453H40.2109V7.30859H40.3086C40.4974 6.63151 40.8099 6.11719 41.2461 5.76562C41.6888 5.41406 42.2096 5.23828 42.8086 5.23828C43.069 5.23828 43.3815 5.27734 43.7461 5.35547V8.22656C43.5964 8.18099 43.3945 8.14518 43.1406 8.11914C42.8867 8.08659 42.6523 8.07031 42.4375 8.07031C42.0273 8.07031 41.6595 8.16146 41.334 8.34375C41.015 8.51953 40.7643 8.77018 40.582 9.0957C40.3997 9.41471 40.3086 9.78255 40.3086 10.1992V16H37.0078V5.39453Z" fill="white"/>
<path d="M24.5859 1.85938H36.4805V4.57422H32.1836V16H28.8828V4.57422H24.5859V1.85938Z" fill="white"/>
<path d="M14.9998 17.5003V5.00033H16.6665C17.1248 5.00033 17.5173 5.16366 17.844 5.49033C18.1707 5.81699 18.3337 6.20921 18.3332 6.66699V15.8337C18.3332 16.292 18.1701 16.6845 17.844 17.0112C17.5179 17.3378 17.1254 17.5009 16.6665 17.5003H14.9998ZM8.33317 5.00033H11.6665V3.33366H8.33317V5.00033ZM6.6665 17.5003V3.33366C6.6665 2.87533 6.82984 2.4831 7.1565 2.15699C7.48317 1.83088 7.87539 1.66755 8.33317 1.66699H11.6665C12.1248 1.66699 12.5173 1.83033 12.844 2.15699C13.1707 2.48366 13.3337 2.87588 13.3332 3.33366V17.5003H6.6665ZM3.33317 17.5003C2.87484 17.5003 2.48262 17.3373 2.1565 17.0112C1.83039 16.685 1.66706 16.2925 1.6665 15.8337V6.66699C1.6665 6.20866 1.82984 5.81644 2.1565 5.49033C2.48317 5.16421 2.87539 5.00088 3.33317 5.00033H4.99984V17.5003H3.33317Z" fill="white"/>
</svg>
